<svg xmlns="http://www.w3.org/2000/svg" aria-hidden="true" style="position:absolute;width:0;height:0;overflow:hidden">
	<defs>
		<symbol id="close" viewBox="0 0 32 32">
			<path
				d="M22.982 6.982l-16 16c-0.257 0.262-0.416 0.622-0.416 1.018s0.159 0.756 0.416 1.018l-0-0c0.262 0.257 0.622 0.416 1.018 0.416s0.756-0.159 1.018-0.416l16-16c0.257-0.262 0.416-0.622 0.416-1.018s-0.159-0.756-0.416-1.018l0 0c-0.262-0.257-0.622-0.416-1.018-0.416s-0.756 0.159-1.018 0.416l0-0z">
			</path>
			<path
				d="M8 6.545c-0.399 0.006-0.759 0.172-1.018 0.436l-0 0c-0.257 0.262-0.416 0.622-0.416 1.018s0.159 0.756 0.416 1.018l16 16c0.262 0.257 0.622 0.416 1.018 0.416s0.756-0.159 1.018-0.416l-0 0c0.257-0.262 0.416-0.622 0.416-1.018s-0.159-0.756-0.416-1.018l-16-16c-0.259-0.265-0.619-0.431-1.017-0.436h-0.001z">
			</path>
		</symbol>
	</defs>
</svg>
