<svg xmlns="http://www.w3.org/2000/svg" aria-hidden="true" style="position:absolute;width:0;height:0;overflow:hidden"><defs><symbol id="chocolate-logo" viewBox="0 0 32 32"><path fill="#fcf1e0" d="M3.95 20.08 14.72 2.65l.64-.66 8.24 5.48.05 3.32 2 3.28-8.85 14.06-12.84-8.05z" style="fill:var(--color1, #fcf1e0)"/><path fill="none" stroke="#fd9222" stroke-linecap="round" stroke-linejoin="round" stroke-width="2.67" d="M21.64 23.88 7.45 15.01m3.91-6.41 14.19 8.87m-14.92 8.4L22.36 6.6m4.81 8.18c-3.04-1.9-4.22-3.39-2.26-6.59l-9.64-6.01L3.53 21.43l14.19 8.86 9.47-15.5z" style="stroke:var(--color2, #fd9222)"/></symbol><symbol id="instagram-desktop" viewBox="0 0 32 32"><path stroke-linecap="round" stroke-linejoin="round" stroke-width="2.67" d="M22.67 2.67H9.33a6.67 6.67 0 0 0-6.66 6.66v13.34a6.67 6.67 0 0 0 6.66 6.66h13.34a6.67 6.67 0 0 0 6.66-6.66V9.33a6.67 6.67 0 0 0-6.66-6.66z"/><path stroke-linecap="round" stroke-linejoin="round" stroke-width="2.67" d="M21.33 15.16a5.33 5.33 0 1 1-10.54 1.59v-.03a5.33 5.33 0 0 1 10.54-1.6v.04z"/><path stroke-linecap="round" stroke-linejoin="round" stroke-width="2.67" d="M21.33 15.16a5.33 5.33 0 1 1-10.54 1.59v-.03a5.33 5.33 0 0 1 10.54-1.6v.04zm2-6.5h.02m-.02 0h.02"/></symbol><symbol id="twitter-desktop" viewBox="0 0 32 32"><path stroke-linecap="round" stroke-linejoin="round" stroke-width="2.67" d="M30.67 4c-1.2.86-2.6 1.55-4.09 2.01l-.1.03a5.96 5.96 0 0 0-10.48 4v1.33c-2.35.07-4.67-.45-6.76-1.5-2.1-1.07-4.56-3.58-5.9-5.5 0 0-4.67 12.96 7.33 18.3a15.39 15.39 0 0 1-9.37 2.66h.03C13.33 32 28 25.33 28 10c0-.37-.04-.75-.1-1.1 1.32-1.31 2.29-2.97 2.75-4.83l.02-.07z"/></symbol><symbol id="scroll-down-desktop" viewBox="0 0 32 32"><path fill="#fd9222" d="M16.95 17.86a1.33 1.33 0 0 1-1.9 0l-6.1-6.1a1.34 1.34 0 1 0-1.9 1.87l6.11 6.1a3.99 3.99 0 0 0 5.68 0l6.1-6.1c.22-.24.36-.56.36-.9a1.34 1.34 0 0 0-2.25-.99l-6.1 6.12z" style="fill:var(--color2, #fd9222)"/></symbol><symbol id="advantages-chocolate" viewBox="0 0 32 32"><path d="m13.82 2.41 7.53 7.54.08-.08a.86.86 0 0 1 1.18 0v-.01l.88.87c.3.3.3.77.08 1.1l-.15.2 6.16 6.15a1.4 1.4 0 0 1 0 1.98l-9.43 9.43a1.4 1.4 0 0 1-1.98 0l-4.45-4.45a.84.84 0 0 1-1.25.08l-2.6-2.6a.86.86 0 0 1-.01-1.19l.08-.08-7.53-7.53a1.4 1.4 0 0 1 0-1.98l9.43-9.43a1.4 1.4 0 0 1 1.98 0zm6.58 8.48-1.75-1.75a.6.6 0 0 0-.85 0l-3.58 3.58a.6.6 0 0 0 0 .86l1.75 1.75.6-.61L15 13.15l3.2-3.22 1.58 1.58.6-.62zm-5.07 5.07-1.76-1.75a.6.6 0 0 0-.85 0L9.14 17.8v.01a.6.6 0 0 0 0 .85l1.75 1.75.61-.61-1.57-1.57 3.22-3.2 1.57 1.56.6-.61zM8.83 8.2l3.57 3.58a.6.6 0 0 0 .85 0l3.58-3.59c.11-.1.18-.26.18-.42h.01a.6.6 0 0 0-.18-.43l-3.58-3.58a.6.6 0 0 0-.86 0l-3.58 3.6a.6.6 0 0 0 0 .84zm-5.08 5.07 3.58 3.58a.6.6 0 0 0 .85 0l3.58-3.58c.11-.1.18-.25.18-.42v-.01h.01a.6.6 0 0 0-.18-.43L8.2 8.82a.6.6 0 0 0-.85 0l-3.59 3.6a.6.6 0 0 0 0 .84zm6.94 8.76 2.36 2.36 9.63-13.04-.65-.65-11.35 11.33z" style="fill:var(--color3, #000)"/><path fill="#fd9222" d="m13.82 2.41 7.53 7.54.08-.08a.86.86 0 0 1 1.18 0v-.01l.88.87c.3.3.3.77.08 1.1l-.15.2 6.16 6.15a1.4 1.4 0 0 1 0 1.98l-9.43 9.43a1.4 1.4 0 0 1-1.98 0l-4.45-4.45a.84.84 0 0 1-1.25.08l-2.6-2.6a.86.86 0 0 1-.01-1.19l.08-.08-7.53-7.53a1.4 1.4 0 0 1 0-1.98l9.43-9.43a1.4 1.4 0 0 1 1.98 0zm6.58 8.48-1.75-1.75a.6.6 0 0 0-.85 0l-3.58 3.58a.6.6 0 0 0 0 .86l1.75 1.75.6-.61L15 13.15l3.2-3.22 1.58 1.58.6-.62zm-5.07 5.07-1.76-1.75a.6.6 0 0 0-.85 0L9.14 17.8v.01a.6.6 0 0 0 0 .85l1.75 1.75.61-.61-1.57-1.57 3.22-3.2 1.57 1.56.6-.61zM8.83 8.2l3.57 3.58a.6.6 0 0 0 .85 0l3.58-3.59c.11-.1.18-.26.18-.42h.01a.6.6 0 0 0-.18-.43l-3.58-3.58a.6.6 0 0 0-.86 0l-3.58 3.6a.6.6 0 0 0 0 .84zm-5.08 5.07 3.58 3.58a.6.6 0 0 0 .85 0l3.58-3.58c.11-.1.18-.25.18-.42v-.01h.01a.6.6 0 0 0-.18-.43L8.2 8.82a.6.6 0 0 0-.85 0l-3.59 3.6a.6.6 0 0 0 0 .84zm6.94 8.76 2.36 2.36 9.63-13.04-.65-.65-11.35 11.33z" style="fill:var(--color2, #fd9222)"/></symbol><symbol id="advantages-coin" viewBox="0 0 32 32"><path fill="#fd9222" d="M16 2.67c-7.33 0-13.33 6-13.33 13.33s6 13.33 13.33 13.33 13.33-6 13.33-13.33S23.33 2.67 16 2.67zm0 24A10.7 10.7 0 0 1 5.33 16 10.7 10.7 0 0 1 16 5.33 10.7 10.7 0 0 1 26.67 16 10.7 10.7 0 0 1 16 26.67z" style="fill:var(--color2, #fd9222)"/><path fill="#fd9222" d="M17.73 14.67h-3.46a1.2 1.2 0 0 1-1.2-1.2c0-.67.53-1.2 1.2-1.2h4.93c.8 0 1.33-.54 1.33-1.34S20 9.6 19.2 9.6h-1.87V8.4c0-.8-.53-1.33-1.33-1.33s-1.33.53-1.33 1.33v1.2h-.4a3.87 3.87 0 0 0 0 7.73h3.33c.67 0 1.2.54 1.2 1.2 0 .67-.53 1.2-1.2 1.2h-4.93c-.8 0-1.34.54-1.34 1.34s.54 1.33 1.34 1.33h2v1.2c0 .8.53 1.33 1.33 1.33s1.33-.53 1.33-1.33v-1.2h.4a3.87 3.87 0 0 0 .01-7.73h-.01z" style="fill:var(--color2, #fd9222)"/></symbol><symbol id="advantages-spoon" viewBox="0 0 32 32"><path fill="#fd9222" d="M15.45 14.1a5.13 5.13 0 0 1-1.17-3.27v-.01c0-4.32 5.18-8.64 10.36-8.64a5.18 5.18 0 0 1 5.18 5.18c0 5.19-4.32 10.37-8.65 10.37-1.16 0-2.33-.4-3.28-1.18L5.13 29.31a1.73 1.73 0 0 1-2.44-2.44L15.45 14.1z" style="fill:var(--color2, #fd9222)"/></symbol><symbol id="bynow-popup-close-desktop" viewBox="0 0 32 32"><path stroke-linecap="round" stroke-linejoin="round" stroke-width="2.91" d="M24 8 8 24M8 8l16 16"/></symbol><symbol id="bynow-close-desktop" viewBox="0 0 32 32"><path stroke-linecap="round" stroke-linejoin="round" stroke-width="2.29" d="M24 8 8 24M8 8l16 16"/></symbol><symbol id="bynow-flag" viewBox="0 0 32 32"><path fill="gold" d="M31.83 5.06H.24v23.5h31.6V5.07z" style="fill:var(--color4, #ffd700)"/><path fill="#0057b7" d="M.24 5.06h31.6V16.8H.23V5.06z" style="fill:var(--color5, #0057b7)"/></symbol><symbol id="bynow-mastercard" viewBox="0 0 32 32"><path fill="#ed0006" d="M16 22.83a9.03 9.03 0 0 1-5.93 2.2h-.01a9.18 9.18 0 0 1-9.15-9.18v-.02c0-5.08 4.1-9.2 9.15-9.2 2.27 0 4.34.82 5.94 2.2a9.03 9.03 0 0 1 5.93-2.2h.01a9.18 9.18 0 0 1 9.15 9.18v.02c0 5.08-4.1 9.2-9.15 9.2h-.01a9.04 9.04 0 0 1-5.94-2.21l.01.01z" style="fill:var(--color6, #ed0006)"/><path fill="#f9a000" d="M16 22.83a9.19 9.19 0 0 0 .01-13.99L16 8.83a9.03 9.03 0 0 1 5.93-2.2h.01a9.18 9.18 0 0 1 9.15 9.18v.02c0 5.08-4.1 9.2-9.15 9.2h-.01a9.04 9.04 0 0 1-5.94-2.21l.01.01z" style="fill:var(--color7, #f9a000)"/><path fill="#ff5e00" d="M16 22.83a9.19 9.19 0 0 0 .01-13.99L16 8.83a9.19 9.19 0 0 0-.01 13.99l.01.01z" style="fill:var(--color8, #ff5e00)"/></symbol><symbol id="burger-tablet" viewBox="0 0 32 32"><path stroke-linecap="round" stroke-linejoin="round" stroke-width="2.5" d="M4 16h24M4 8h24M4 24h24"/></symbol><symbol id="chocolate-logo-tablet" viewBox="0 0 32 32"><path fill="#fcf1e0" d="M4.5 19.88 14.77 3.26l.61-.64 7.86 5.23.05 3.18 1.92 3.12-8.48 13.44L4.5 19.9z" style="fill:var(--color1, #fcf1e0)"/><path fill="none" stroke="#fd9222" stroke-linecap="round" stroke-linejoin="round" stroke-width="2.62" d="M21.38 23.52 7.84 15.06m3.74-6.12L25.1 17.4M10.88 25.4l11.2-18.37m4.58 7.81c-2.9-1.82-4.03-3.24-2.17-6.3L15.3 2.81 4.1 21.18l13.54 8.46 9.02-14.79z" style="stroke:var(--color2, #fd9222)"/></symbol><symbol id="modal-nav-close" viewBox="0 0 32 32"><path fill="none" stroke="#fff" stroke-linecap="round" stroke-linejoin="round" stroke-width="2" d="M22.67 9.33 9.33 22.67m0-13.34 13.34 13.34" style="stroke:var(--color9, #fff)"/></symbol></defs></svg>