<svg xmlns="http://www.w3.org/2000/svg" aria-hidden="true" style="position:absolute;width:0;height:0;overflow:hidden">
	<defs>
		<symbol id="flag-ua" viewBox="0 0 32 32">
			<path fill="#ffd700" d="M31.83 5.06H.24v23.5h31.6V5.07z" />
			<path fill="#0057b7" d="M.24 5.06h31.6V16.8H.23V5.06z" />
		</symbol>
		<symbol id="mastercard" viewBox="0 0 32 32">
			<path fill="#ed0006"
				d="M16 22.83a9.03 9.03 0 0 1-5.93 2.2h-.01a9.18 9.18 0 0 1-9.15-9.18v-.02c0-5.08 4.1-9.2 9.15-9.2 2.27 0 4.34.82 5.94 2.2a9.03 9.03 0 0 1 5.93-2.2h.01a9.18 9.18 0 0 1 9.15 9.18v.02c0 5.08-4.1 9.2-9.15 9.2h-.01a9.04 9.04 0 0 1-5.94-2.21l.01.01z" />
			<path fill="#f9a000"
				d="M16 22.83a9.19 9.19 0 0 0 .01-13.99L16 8.83a9.03 9.03 0 0 1 5.93-2.2h.01a9.18 9.18 0 0 1 9.15 9.18v.02c0 5.08-4.1 9.2-9.15 9.2h-.01a9.04 9.04 0 0 1-5.94-2.21l.01.01z" />
			<path fill="#ff5e00" d="M16 22.83a9.19 9.19 0 0 0 .01-13.99L16 8.83a9.19 9.19 0 0 0-.01 13.99l.01.01z" />
		</symbol>
		<symbol id="twitter" viewBox="0 0 32 32">
			<path
				d="M22.092 2.654c-0.035-0.001-0.077-0.001-0.118-0.001-2.503 0-4.713 1.259-6.029 3.178l-0.016 0.025c-0.789 1.149-1.26 2.57-1.26 4.101 0 0.016 0 0.032 0 0.049v-0.002c-1.782-0.135-3.423-0.613-4.9-1.367l0.073 0.034c-1.71-0.861-4.195-3.317-5.417-5.057-0.244-0.345-0.642-0.567-1.091-0.567-0.574 0-1.064 0.363-1.251 0.872l-0.003 0.009s-1.269 3.479-0.907 7.709c0.316 3.698 2.013 8.109 6.726 11.068-1.745 0.826-3.791 1.308-5.949 1.308-0.198 0-0.395-0.004-0.59-0.012l0.028 0.001c-0.015-0.001-0.034-0.001-0.052-0.001-0.736 0-1.333 0.597-1.333 1.333 0 0.498 0.273 0.933 0.678 1.162l0.007 0.003c6.366 3.537 13.52 3.568 19.107 0.595s9.54-9.002 9.54-17.094c0-0.001 0-0.001 0-0.002s0-0.001 0-0.002v0c-0.001-0.218-0.012-0.436-0.032-0.652 1.248-1.379 2.173-3.073 2.644-4.948l0.017-0.080c0.024-0.095 0.038-0.203 0.038-0.315 0-0.736-0.597-1.333-1.333-1.333 0 0 0 0 0 0v0c-0.288 0-0.555 0.091-0.773 0.247l0.004-0.003c-0.882 0.629-1.893 1.169-2.971 1.573l-0.091 0.030c-0.85-0.764-1.89-1.333-3.039-1.63l-0.051-0.011c-0.494-0.129-1.063-0.208-1.648-0.217l-0.006-0zM22.048 5.321c1.367 0.023 2.587 0.633 3.422 1.589l0.005 0.005c0.246 0.282 0.605 0.458 1.006 0.458 0.137 0 0.269-0.021 0.394-0.059l-0.009 0.003c0.422-0.127 0.727-0.233 1.028-0.348l-0.109 0.036c-0.265 0.345-0.536 0.651-0.826 0.937l-0.001 0.001c-0.245 0.242-0.397 0.578-0.397 0.949 0 0.089 0.009 0.175 0.025 0.259l-0.001-0.008c0.052 0.258 0.082 0.555 0.083 0.859v0.001c-0.001 7.24-3.38 12.21-8.126 14.737-3.468 1.846-7.7 2.358-11.926 1.28 1.828-0.535 3.423-1.303 4.859-2.287l-0.057 0.037c0.355-0.243 0.585-0.646 0.585-1.103 0-0.54-0.322-1.006-0.784-1.215l-0.008-0.003c-5.575-2.478-7.074-6.458-7.38-10.038-0.131-1.541-0.006-2.955 0.177-4.088 1.347 1.476 2.982 2.897 4.637 3.729 2.035 1.046 4.441 1.66 6.99 1.66 0.142 0 0.283-0.002 0.423-0.006l-0.021 0c0.721-0.019 1.299-0.609 1.299-1.333v0-1.333c0-0.003 0-0.006 0-0.009s0-0.006-0-0.009v0c-0-0.019-0-0.041-0-0.063 0-2.562 2.077-4.639 4.639-4.639 0.027 0 0.053 0 0.080 0.001l-0.004-0z">
			</path>
		</symbol>
		<symbol id="spoon" viewBox="0 0 32 32">
			<path fill="#fd9222" style="fill: var(--color1, #fd9222)"
				d="M15.45 14.1c-0.728-0.879-1.17-2.019-1.17-3.261 0-0.004 0-0.007 0-0.011v0.001-0.008c0-4.32 5.18-8.64 10.36-8.64 2.861 0 5.18 2.319 5.18 5.18 0 5.19-4.32 10.37-8.65 10.37-1.25-0.003-2.395-0.448-3.289-1.187l0.009 0.007-12.76 12.76c-0.301 0.261-0.697 0.42-1.13 0.42-0.955 0-1.73-0.775-1.73-1.73 0-0.434 0.16-0.831 0.424-1.135l-0.002 0.002-0.002 0.002 12.76-12.77z">
			</path>
		</symbol>
		<symbol id="scroll-down" viewBox="0 0 32 32">
			<path fill="#fd9222" style="fill: var(--color1, #fd9222)"
				d="M17.486 18.926c-0.38 0.38-0.906 0.615-1.486 0.615s-1.105-0.235-1.486-0.615l-9.6-9.6c-0.389-0.473-0.974-0.773-1.629-0.773-1.161 0-2.103 0.941-2.103 2.103 0 0.649 0.294 1.23 0.757 1.616l0.003 0.003 9.6 9.6c1.139 1.145 2.715 1.854 4.457 1.854s3.318-0.709 4.457-1.853l9.6-9.6c0.345-0.373 0.557-0.875 0.557-1.425 0-1.161-0.941-2.103-2.103-2.103-0.551 0-1.052 0.212-1.427 0.558l0.001-0.001-9.6 9.623z">
			</path>
		</symbol>
		<symbol id="logo" viewBox="0 0 32 32">
			<path fill="#fcf1e0" style="fill: var(--color2, #fcf1e0)"
				d="M3.947 20.080l10.773-17.427 0.64-0.667 8.24 5.48 0.053 3.32 2 3.28-8.853 14.067-12.84-8.053z"></path>
			<path fill="#fd9222" style="fill: var(--color1, #fd9222)"
				d="M15.482 0.871c-0.065-0.011-0.139-0.018-0.216-0.018-0.48 0-0.9 0.253-1.135 0.633l-0.003 0.006-11.733 19.24c-0.122 0.198-0.195 0.438-0.195 0.694 0 0.474 0.248 0.891 0.621 1.127l0.005 0.003 7.084 4.427c0.007 0.006 0.014 0.013 0.021 0.020l0.001 0.001c-0.001 0 0.008 0.003 0.016 0.006l0.009 0.003 7.055 4.409c0.201 0.127 0.445 0.203 0.707 0.203 0.479 0 0.9-0.253 1.135-0.633l0.003-0.006 3.899-6.387c0.004-0.004 0.008-0.009 0.012-0.013l0.001-0.001c0.007-0.012 0.017-0.031 0.027-0.050l0.003-0.008 5.524-9.047c0.12-0.196 0.191-0.434 0.191-0.688 0-0.48-0.253-0.9-0.633-1.135l-0.006-0.003h0.001c-1.453-0.904-2.259-1.661-2.487-2.195s-0.216-1.144 0.653-2.563c0.123-0.198 0.197-0.439 0.197-0.697 0-0.475-0.248-0.892-0.622-1.128l-0.006-0.003-9.64-6.013c-0.14-0.089-0.305-0.153-0.482-0.183l-0.008-0.001zM15.704 4.031l4.832 3.014-2.523 4.141-4.83-3.019zM22.798 8.456l0.357 0.223c-0.591 1.363-0.711 2.672-0.216 3.828 0.481 1.126 1.35 1.937 2.433 2.694l-0.258 0.423-4.84-3.025zM11.793 10.443l4.831 3.019-2.52 4.135-4.832-3.020zM18.886 14.876l4.838 3.024-2.523 4.133-4.835-3.022zM7.883 16.854l4.833 3.021-2.524 4.141-4.834-3.022zM14.978 21.289l4.833 3.021-2.527 4.139-4.83-3.019z">
			</path>
		</symbol>
		<symbol id="instagram" viewBox="0 0 32 32">
			<path
				d="M9.333 1.333c-4.403 0-8 3.598-8 8v13.333c0 4.402 3.598 8 8 8h13.333c4.402 0 8-3.598 8-8v-13.333c0-4.403-3.598-8-8-8zM9.333 4h13.333c2.961 0 5.334 2.372 5.334 5.334v13.333c0 0.006 0 0.013 0 0.020 0 2.935-2.379 5.314-5.314 5.314-0.007 0-0.014 0-0.021-0h-13.332c-0.006 0-0.013 0-0.020 0-2.935 0-5.314-2.379-5.314-5.314 0-0.007 0-0.014 0-0.021v0.001-13.333c0-2.961 2.372-5.334 5.334-5.334z">
			</path>
			<path
				d="M23.333 7.333c-0.736 0-1.333 0.597-1.333 1.333v0c0 0.736 0.597 1.333 1.333 1.333h0.013c0.736 0 1.333-0.597 1.333-1.333v-0c0-0.736-0.597-1.333-1.333-1.333v0zM16.093 9.311c-0.333-0.002-0.669 0.022-1.008 0.072-3.609 0.535-6.134 3.915-5.623 7.528 0.516 3.647 3.935 6.201 7.579 5.661s6.175-3.977 5.61-7.617c-0.507-3.268-3.344-5.629-6.558-5.645zM15.884 11.981c2.027-0.097 3.813 1.332 4.132 3.384 0.032 0.19 0.050 0.408 0.050 0.63 0 1.999-1.474 3.654-3.395 3.937l-0.022 0.003c-0.181 0.029-0.391 0.046-0.604 0.046-2.009 0-3.67-1.488-3.941-3.422l-0.002-0.021c-0.027-0.173-0.042-0.373-0.042-0.577 0-1.999 1.474-3.654 3.394-3.937l0.022-0.003c0.137-0.020 0.273-0.033 0.408-0.040z">
			</path>
		</symbol>
		<symbol id="coin" viewBox="0 0 32 32">
			<path fill="#fd9222" style="fill: var(--color1, #fd9222)"
				d="M16 2.67c-7.33 0-13.33 6-13.33 13.33s6 13.33 13.33 13.33 13.33-6 13.33-13.33-6-13.33-13.33-13.33zM16 26.67c-5.886-0.017-10.653-4.784-10.67-10.668v-0.002c0.017-5.886 4.784-10.653 10.668-10.67h0.002c5.886 0.017 10.653 4.784 10.67 10.668v0.002c-0.017 5.886-4.784 10.653-10.668 10.67h-0.002z">
			</path>
			<path fill="#fd9222" style="fill: var(--color1, #fd9222)"
				d="M17.73 14.67h-3.46c-0.663 0-1.2-0.537-1.2-1.2v0c-0-0.003-0-0.006-0-0.009 0-0.658 0.533-1.191 1.191-1.191 0.003 0 0.007 0 0.010 0h4.93c0.8 0 1.33-0.54 1.33-1.34s-0.53-1.33-1.33-1.33h-1.87v-1.2c0-0.8-0.53-1.33-1.33-1.33s-1.33 0.53-1.33 1.33v1.2h-0.4c-2.051 0.107-3.673 1.797-3.673 3.865s1.623 3.758 3.664 3.865l0.009 0h3.33c0.001 0 0.002 0 0.003 0 0.661 0 1.197 0.536 1.197 1.197 0 0.001 0 0.002 0 0.003v-0c0 0.003 0 0.006 0 0.009 0 0.658-0.533 1.191-1.191 1.191-0.003 0-0.007 0-0.010-0h-4.93c-0.8 0-1.34 0.54-1.34 1.34s0.54 1.33 1.34 1.33h2v1.2c0 0.8 0.53 1.33 1.33 1.33s1.33-0.53 1.33-1.33v-1.2h0.4c2.051-0.108 3.673-1.797 3.673-3.865s-1.622-3.758-3.664-3.865l-0.009-0z">
			</path>
		</symbol>
		<symbol id="close" viewBox="0 0 32 32">
			<path
				d="M22.982 6.982l-16 16c-0.257 0.262-0.416 0.622-0.416 1.018s0.159 0.756 0.416 1.018l-0-0c0.262 0.257 0.622 0.416 1.018 0.416s0.756-0.159 1.018-0.416l16-16c0.257-0.262 0.416-0.622 0.416-1.018s-0.159-0.756-0.416-1.018l0 0c-0.262-0.257-0.622-0.416-1.018-0.416s-0.756 0.159-1.018 0.416l0-0z">
			</path>
			<path
				d="M8 6.545c-0.399 0.006-0.759 0.172-1.018 0.436l-0 0c-0.257 0.262-0.416 0.622-0.416 1.018s0.159 0.756 0.416 1.018l16 16c0.262 0.257 0.622 0.416 1.018 0.416s0.756-0.159 1.018-0.416l-0 0c0.257-0.262 0.416-0.622 0.416-1.018s-0.159-0.756-0.416-1.018l-16-16c-0.259-0.265-0.619-0.431-1.017-0.436h-0.001z">
			</path>
		</symbol>
		<symbol id="chocolate" viewBox="0 0 32 32">
			<path fill="#000" style="fill: var(--color3, #000)"
				d="M13.82 2.41l7.53 7.54 0.080-0.080c0.154-0.148 0.363-0.239 0.594-0.239 0 0 0.001 0 0.001 0h-0c0.226 0 0.432 0.088 0.585 0.23l-0.001-0.001 0.88 0.87c0.3 0.3 0.31 0.77 0.080 1.1l-0.15 0.2 6.16 6.15c0.253 0.253 0.41 0.603 0.41 0.99s-0.157 0.737-0.41 0.99l-9.43 9.43c-0.253 0.253-0.603 0.41-0.99 0.41s-0.737-0.157-0.99-0.41l-4.45-4.45c-0.155 0.197-0.393 0.322-0.661 0.322-0.23 0-0.438-0.092-0.589-0.242l-2.6-2.6c-0.151-0.154-0.244-0.366-0.244-0.599 0-0 0-0.001 0-0.001v0c0-0.229 0.089-0.437 0.234-0.591l0.080-0.079-7.53-7.53c-0.253-0.253-0.41-0.603-0.41-0.99s0.157-0.737 0.41-0.99l9.43-9.43c0.253-0.253 0.603-0.41 0.99-0.41s0.737 0.157 0.99 0.41zM20.4 10.89l-1.75-1.75c-0.109-0.109-0.259-0.177-0.425-0.177s-0.316 0.068-0.425 0.177l-3.58 3.58c-0.112 0.109-0.182 0.262-0.182 0.43s0.069 0.321 0.181 0.43l1.75 1.75 0.6-0.61-1.56-1.57 3.21-3.22 1.57 1.58 0.61-0.62zM15.33 15.96l-1.76-1.75c-0.109-0.109-0.259-0.177-0.425-0.177s-0.316 0.068-0.425 0.177l-3.58 3.59v0.010c-0.109 0.109-0.177 0.259-0.177 0.425s0.068 0.316 0.177 0.425l1.75 1.75 0.61-0.61-1.57-1.57 3.22-3.2 1.57 1.56 0.6-0.61zM8.83 8.2l3.57 3.58c0.24 0.24 0.62 0.24 0.85 0l3.58-3.59c0.111-0.106 0.18-0.254 0.18-0.419 0-0 0-0 0-0.001v0h0.010c-0.001-0.168-0.069-0.32-0.18-0.43l-3.58-3.58c-0.109-0.112-0.262-0.182-0.43-0.182s-0.321 0.069-0.43 0.181l-3.58 3.6c-0.106 0.108-0.172 0.257-0.172 0.42s0.066 0.312 0.172 0.42h-0zM3.75 13.27l3.58 3.58c0.109 0.109 0.259 0.177 0.425 0.177s0.316-0.067 0.425-0.177l3.58-3.58c0.111-0.106 0.18-0.254 0.18-0.419 0-0.004-0-0.008-0-0.012v0.001h0.010v-0.002c0-0.168-0.069-0.319-0.18-0.428v-0l-3.57-3.59c-0.109-0.109-0.259-0.177-0.425-0.177s-0.316 0.068-0.425 0.177l-3.59 3.6c-0.106 0.108-0.172 0.256-0.172 0.42s0.066 0.312 0.172 0.42h-0zM10.69 22.030l2.36 2.36 9.63-13.040-0.65-0.65-11.35 11.33z">
			</path>
			<path fill="#fd9222" style="fill: var(--color1, #fd9222)"
				d="M13.82 2.41l7.53 7.54 0.080-0.080c0.154-0.148 0.363-0.239 0.594-0.239 0 0 0.001 0 0.001 0h-0c0.226 0 0.432 0.088 0.585 0.23l-0.001-0.001 0.88 0.87c0.3 0.3 0.31 0.77 0.080 1.1l-0.15 0.2 6.16 6.15c0.253 0.253 0.41 0.603 0.41 0.99s-0.157 0.737-0.41 0.99l-9.43 9.43c-0.253 0.253-0.603 0.41-0.99 0.41s-0.737-0.157-0.99-0.41l-4.45-4.45c-0.155 0.197-0.393 0.322-0.661 0.322-0.23 0-0.438-0.092-0.589-0.242l-2.6-2.6c-0.151-0.154-0.244-0.366-0.244-0.599 0-0 0-0.001 0-0.001v0c0-0.229 0.089-0.437 0.234-0.591l0.080-0.079-7.53-7.53c-0.253-0.253-0.41-0.603-0.41-0.99s0.157-0.737 0.41-0.99l9.43-9.43c0.253-0.253 0.603-0.41 0.99-0.41s0.737 0.157 0.99 0.41zM20.4 10.89l-1.75-1.75c-0.109-0.109-0.259-0.177-0.425-0.177s-0.316 0.068-0.425 0.177l-3.58 3.58c-0.112 0.109-0.182 0.262-0.182 0.43s0.069 0.321 0.181 0.43l1.75 1.75 0.6-0.61-1.56-1.57 3.21-3.22 1.57 1.58 0.61-0.62zM15.33 15.96l-1.76-1.75c-0.109-0.109-0.259-0.177-0.425-0.177s-0.316 0.068-0.425 0.177l-3.58 3.59v0.010c-0.109 0.109-0.177 0.259-0.177 0.425s0.068 0.316 0.177 0.425l1.75 1.75 0.61-0.61-1.57-1.57 3.22-3.2 1.57 1.56 0.6-0.61zM8.83 8.2l3.57 3.58c0.24 0.24 0.62 0.24 0.85 0l3.58-3.59c0.111-0.106 0.18-0.254 0.18-0.419 0-0 0-0 0-0.001v0h0.010c-0.001-0.168-0.069-0.32-0.18-0.43l-3.58-3.58c-0.109-0.112-0.262-0.182-0.43-0.182s-0.321 0.069-0.43 0.181l-3.58 3.6c-0.106 0.108-0.172 0.257-0.172 0.42s0.066 0.312 0.172 0.42h-0zM3.75 13.27l3.58 3.58c0.109 0.109 0.259 0.177 0.425 0.177s0.316-0.067 0.425-0.177l3.58-3.58c0.111-0.106 0.18-0.254 0.18-0.419 0-0.004-0-0.008-0-0.012v0.001h0.010v-0.002c0-0.168-0.069-0.319-0.18-0.428v-0l-3.57-3.59c-0.109-0.109-0.259-0.177-0.425-0.177s-0.316 0.068-0.425 0.177l-3.59 3.6c-0.106 0.108-0.172 0.256-0.172 0.42s0.066 0.312 0.172 0.42h-0zM10.69 22.030l2.36 2.36 9.63-13.040-0.65-0.65-11.35 11.33z">
			</path>
		</symbol>
		<symbol id="burger" viewBox="0 0 32 32">
			<path
				d="M2.286 5.429c-0.789 0-1.429 0.64-1.429 1.429v0c0 0.789 0.64 1.429 1.429 1.429v0h27.429c0.789 0 1.429-0.64 1.429-1.429v0c0-0.789-0.64-1.429-1.429-1.429v0zM2.286 14.571c-0.789 0-1.429 0.64-1.429 1.429v0c0 0.789 0.64 1.429 1.429 1.429v0h27.429c0.789 0 1.429-0.64 1.429-1.429v0c0-0.789-0.64-1.429-1.429-1.429v0zM2.286 23.714c-0.789 0-1.429 0.64-1.429 1.429v0c0 0.789 0.64 1.429 1.429 1.429v0h27.429c0.789 0 1.429-0.64 1.429-1.429v0c0-0.789-0.64-1.429-1.429-1.429v0z">
			</path>
		</symbol>
		<symbol id="play" viewBox="0 0 32 32">
			<path d="M10.909 24v-15.273l14.545 7.636-14.545 7.636z"></path>
			<path
				d="M16 0c-8.832 0-16 7.168-16 16s7.168 16 16 16 16-7.168 16-16-7.168-16-16-16zM16 0.727c8.439 0 15.273 6.833 15.273 15.273s-6.833 15.273-15.273 15.273-15.273-6.833-15.273-15.273 6.833-15.273 15.273-15.273z">
			</path>
		</symbol>
		<symbol id="flag-code" viewBox="0 0 97 32">
			<path fill="#fafafa" style="fill: var(--color1, #ffffff)" d="M0 0h94.72v32h-94.72v-32z"></path>
			<path fill="#ffd700" style="fill: var(--color2, #ffd700)" d="M30.559 5.496h-30.326v22.568h30.326v-22.568z"></path>
			<path fill="#0057b7" style="fill: var(--color3, #0057b7)" d="M0.233 5.496h30.326v11.284h-30.326v-11.284z"></path>
			<path fill="#000" style="fill: var(--color4, #000)" d="M45.422 20.692v-7.849h1.505v7.849h-1.505zM42.161 17.485v-1.416h8.028v1.416h-8.028zM55.377 23.183c-0.884 0-1.744-0.137-2.58-0.412-0.824-0.275-1.499-0.645-2.025-1.111l0.824-1.416c0.418 0.394 0.962 0.717 1.631 0.968s1.386 0.376 2.15 0.376c0.932 0 1.655-0.197 2.168-0.591 0.526-0.406 0.788-0.95 0.788-1.631 0-0.657-0.251-1.183-0.753-1.577-0.49-0.406-1.272-0.609-2.348-0.609h-1.004v-1.254l3.727-4.588 0.251 0.717h-6.863v-1.559h8.279v1.219l-3.709 4.57-0.932-0.556h0.591c1.517 0 2.652 0.34 3.405 1.021 0.765 0.681 1.147 1.547 1.147 2.598 0 0.705-0.173 1.35-0.52 1.935s-0.872 1.051-1.577 1.398c-0.693 0.334-1.577 0.502-2.652 0.502zM66.331 23.183c-1.015 0-1.894-0.149-2.634-0.448s-1.314-0.723-1.72-1.272c-0.406-0.562-0.609-1.219-0.609-1.971 0-0.741 0.191-1.368 0.573-1.882 0.394-0.526 0.962-0.92 1.702-1.183 0.741-0.275 1.637-0.412 2.688-0.412s1.947 0.137 2.688 0.412c0.753 0.263 1.326 0.657 1.72 1.183s0.591 1.153 0.591 1.882c0 0.753-0.203 1.41-0.609 1.971-0.406 0.549-0.986 0.974-1.738 1.272s-1.637 0.448-2.652 0.448zM66.331 21.732c1.004 0 1.786-0.203 2.348-0.609 0.573-0.418 0.86-0.98 0.86-1.684 0-0.693-0.287-1.236-0.86-1.631-0.561-0.406-1.344-0.609-2.348-0.609-0.992 0-1.768 0.203-2.33 0.609-0.561 0.394-0.842 0.938-0.842 1.631 0 0.705 0.281 1.266 0.842 1.684 0.562 0.406 1.338 0.609 2.33 0.609zM66.331 16.983c-0.956 0-1.768-0.125-2.437-0.376-0.669-0.263-1.183-0.633-1.541-1.111-0.358-0.49-0.538-1.069-0.538-1.738 0-0.705 0.185-1.308 0.556-1.81 0.382-0.514 0.914-0.908 1.595-1.183s1.469-0.412 2.365-0.412c0.908 0 1.702 0.137 2.383 0.412s1.213 0.669 1.595 1.183c0.382 0.502 0.573 1.105 0.573 1.81 0 0.669-0.179 1.248-0.538 1.738-0.358 0.478-0.878 0.848-1.559 1.111-0.681 0.251-1.499 0.376-2.455 0.376zM66.331 15.836c0.872 0 1.553-0.179 2.043-0.538 0.502-0.358 0.753-0.848 0.753-1.469 0-0.633-0.257-1.129-0.771-1.487s-1.189-0.538-2.025-0.538c-0.836 0-1.505 0.179-2.007 0.538-0.49 0.358-0.735 0.854-0.735 1.487 0 0.621 0.239 1.111 0.717 1.469 0.49 0.358 1.165 0.538 2.025 0.538zM77.738 23.183c-0.98 0-1.858-0.251-2.634-0.753-0.765-0.502-1.374-1.23-1.828-2.186-0.442-0.956-0.663-2.115-0.663-3.476s0.221-2.521 0.663-3.476c0.454-0.956 1.063-1.684 1.828-2.186 0.777-0.502 1.655-0.753 2.634-0.753 0.968 0 1.84 0.251 2.616 0.753s1.386 1.23 1.828 2.186c0.442 0.956 0.663 2.115 0.663 3.476s-0.221 2.521-0.663 3.476c-0.442 0.956-1.051 1.684-1.828 2.186s-1.649 0.753-2.616 0.753zM77.738 21.588c0.657 0 1.23-0.179 1.72-0.538 0.502-0.358 0.89-0.896 1.165-1.613 0.287-0.717 0.43-1.607 0.43-2.67s-0.143-1.953-0.43-2.67c-0.275-0.717-0.663-1.254-1.165-1.613-0.49-0.358-1.063-0.538-1.72-0.538s-1.236 0.179-1.738 0.538c-0.502 0.358-0.896 0.896-1.183 1.613-0.275 0.717-0.412 1.607-0.412 2.67s0.137 1.953 0.412 2.67c0.287 0.717 0.681 1.254 1.183 1.613s1.081 0.538 1.738 0.538z"></path>
		</symbol>
	</defs>
</svg>
